<svg xmlns="http://www.w3.org/2000/svg" viewBox="0 0 93.17 82.45"><g id="Шар_2" data-name="Шар 2"><g id="Шар_1-2" data-name="Шар 1"><path d="M86.73,27.3a22,22,0,0,0-14.94-6.41c-.15-.28-.31-.56-.49-.83a8.56,8.56,0,0,0-.52-.77v0l0,0,0,0a6.62,6.62,0,0,0-.52-.66l0,0,0,0a8,8,0,0,0-.64-.71l-.65-.61h0v0c-.25-.22-.51-.43-.72-.59h0l0,0c-.09-.08-.19-.14-.28-.21l-.1-.08L67.31,16c-.27-.18-.54-.35-.8-.49s-.54-.3-.85-.44a8.75,8.75,0,0,0-.83-.37l-.18-.07c-.28-.11-.58-.21-.81-.28s-.57-.17-.86-.23l-.15,0c-.3-.07-.61-.12-.92-.17h-.08c-.25,0-.5-.07-.68-.08a4.41,4.41,0,0,0-.6,0h0l-.67,0H54.14V11.09C54.14,5,50.4,0,45.81,0H27.56C23,0,19.23,5,19.23,11.09v2.62H13.5A13.52,13.52,0,0,0,0,27.21V56.09a13.51,13.51,0,0,0,13.5,13.5H33.92l-.17.17a7.47,7.47,0,0,0,0,10.52,7.46,7.46,0,0,0,10.52,0l1.34-1.35h0L51.52,73h0l1.35-1.35a7.21,7.21,0,0,0,1.45-2.09h5.55a13.37,13.37,0,0,0,10.21-4.73c.36,0,.71.06,1.06.06A22,22,0,0,0,86.73,27.3ZM22.23,11.09C22.23,6.7,24.67,3,27.56,3H45.81c2.89,0,5.33,3.7,5.33,8.09v2.62H22.23ZM62.28,17c.21.05.43.11.7.2a6.26,6.26,0,0,1,.61.21l.16.07a4.11,4.11,0,0,1,.57.25l.12.05c.19.09.37.18.58.3s.42.25.66.41a5.3,5.3,0,0,1,.54.39l.06.05a5.85,5.85,0,0,1,.54.45c.19.16.38.34.56.52s.33.35.48.53.33.41.48.62l0,0a21.87,21.87,0,0,0-19.2,21H24v-1.2a5.27,5.27,0,0,0-10.53,0v1.2A10.51,10.51,0,0,1,3,31.58V27.21a10.51,10.51,0,0,1,10.5-10.5H59.87l.53,0h.12l.3,0,.6.07.16,0,.57.11ZM21,40.88v6.64a2.27,2.27,0,1,1-4.53,0V40.88a2.27,2.27,0,0,1,4.53,0ZM13.5,66.59A10.51,10.51,0,0,1,3,56.09v-16a13.46,13.46,0,0,0,10.43,5v2.44a5.27,5.27,0,1,0,10.53,0V45.08H49.23a21.9,21.9,0,0,0,3.66,10.13L49,59.12A7.64,7.64,0,0,0,47.61,59a7.39,7.39,0,0,0-5.26,2.17L41,62.51h0l-4.09,4.08ZM42.15,78.16a4.43,4.43,0,1,1-6.27-6.27l1.34-1.35,6.27,6.27Zm3.46-3.47-6.27-6.27L41,66.76,47.28,73Zm5.14-5.13L49.4,70.91l-6.27-6.28,1.34-1.34a4.47,4.47,0,0,1,6.28,0A4.45,4.45,0,0,1,50.75,69.56Zm2.89-7.48a7.41,7.41,0,0,0-.77-.91,8.44,8.44,0,0,0-.92-.78l2.81-2.81c.26.3.52.6.8.89s.59.54.89.8Zm6.23,4.51H55a7.27,7.27,0,0,0-.12-1.54l3.91-3.91a21.77,21.77,0,0,0,7.49,3.22A10.42,10.42,0,0,1,59.87,66.59ZM84.61,56.35a19,19,0,1,1,0-26.92A19.07,19.07,0,0,1,84.61,56.35Z"/><path d="M82.07,32a15.43,15.43,0,1,0,0,21.84A15.36,15.36,0,0,0,82.07,32ZM79.94,51.69a12.45,12.45,0,1,1,0-17.6A12.45,12.45,0,0,1,79.94,51.69Z"/></g></g></svg>