<svg id="Шар_1" data-name="Шар 1" xmlns="http://www.w3.org/2000/svg" viewBox="0 0 106.85 106.85"><path d="M1071.37,361.81h-16.12v-13.5a11.72,11.72,0,0,0-11.71-11.71h-35.61a9.11,9.11,0,0,0-9.1,9.09v16.12h-13.5a11.72,11.72,0,0,0-11.71,11.71v35.62a9.1,9.1,0,0,0,9.09,9.09h16.12v16.12a9.11,9.11,0,0,0,9.1,9.1h38.23a9.11,9.11,0,0,0,9.09-9.1V418.23h16.12a9.11,9.11,0,0,0,9.1-9.09V370.9A9.11,9.11,0,0,0,1071.37,361.81Zm-66.54-16.12a3.09,3.09,0,0,1,3.1-3.09h35.61a5.71,5.71,0,0,1,5.71,5.71v13.5h-13.5A11.74,11.74,0,0,0,1024,373.52V387h-16.11a3.1,3.1,0,0,1-3.1-3.09V345.69Zm-22.12,66.54a3.09,3.09,0,0,1-3.09-3.09V373.52a5.71,5.71,0,0,1,5.71-5.71h13.5v16.12a9.11,9.11,0,0,0,9.1,9.09H1024v16.12a3.09,3.09,0,0,1-3.09,3.09H982.71Zm66.54,22.12a3.09,3.09,0,0,1-3.09,3.1h-38.23a3.1,3.1,0,0,1-3.1-3.1V418.23H1021a9.11,9.11,0,0,0,9.09-9.09V393h13.5a5.71,5.71,0,0,1,5.71,5.71v35.62Zm25.22-25.21a3.09,3.09,0,0,1-3.1,3.09h-16.12v-13.5A11.74,11.74,0,0,0,1043.54,387H1030v-13.5a5.72,5.72,0,0,1,5.71-5.71h35.62a3.1,3.1,0,0,1,3.1,3.09Z" transform="translate(-973.62 -336.6)"/></svg>